<svg width="32" height="32" viewBox="0 0 32 32" fill="none" xmlns="http://www.w3.org/2000/svg">
<circle cx="16" cy="16" r="16" fill="white" fill-opacity="0.17"/>
<path d="M22.5859 9.64453C20.9043 7.92188 18.6074 6.9375 16.1465 6.9375C11.1426 6.9375 7.04102 11.0391 7.04102 16.043C7.04102 17.6836 7.49219 19.2422 8.27148 20.5957L7 25.3125L11.7988 24.082C13.1523 24.7793 14.6289 25.1895 16.1465 25.1895C21.1914 25.1895 25.375 21.0879 25.375 16.084C25.375 13.623 24.3086 11.3672 22.5859 9.64453ZM16.1465 23.6309C14.793 23.6309 13.4805 23.2617 12.291 22.5645L12.0449 22.4004L9.17383 23.1797L9.95312 20.3906L9.74805 20.1035C9.00977 18.873 8.59961 17.4785 8.59961 16.043C8.59961 11.9004 12.0039 8.49609 16.1875 8.49609C18.1973 8.49609 20.084 9.27539 21.5195 10.7109C22.9551 12.1465 23.8164 14.0332 23.8164 16.084C23.8164 20.2266 20.3301 23.6309 16.1465 23.6309ZM20.3301 17.9707C20.084 17.8477 18.9766 17.3145 18.7715 17.2324C18.5664 17.1504 18.4023 17.1094 18.2383 17.3555C18.1152 17.5605 17.6641 18.0938 17.541 18.2578C17.377 18.3809 17.2539 18.4219 17.0488 18.2988C15.6953 17.6426 14.834 17.1094 13.9316 15.5918C13.6855 15.1816 14.1777 15.2227 14.5879 14.3613C14.6699 14.1973 14.6289 14.0742 14.5879 13.9512C14.5469 13.8281 14.0547 12.7207 13.8906 12.2695C13.6855 11.8184 13.5215 11.8594 13.3574 11.8594C13.2344 11.8594 13.0703 11.8594 12.9473 11.8594C12.7832 11.8594 12.5371 11.9004 12.332 12.1465C12.127 12.3926 11.5527 12.9258 11.5527 14.0332C11.5527 15.1816 12.332 16.248 12.4551 16.4121C12.5781 16.5352 14.0547 18.832 16.3516 19.8164C17.7871 20.4727 18.3613 20.5137 19.0996 20.3906C19.5098 20.3496 20.4121 19.8574 20.6172 19.3242C20.8223 18.791 20.8223 18.3398 20.7402 18.2578C20.6992 18.1348 20.5352 18.0938 20.3301 17.9707Z" fill="white"/>
</svg>
