<svg width="32" height="32" viewBox="0 0 32 32" fill="none" xmlns="http://www.w3.org/2000/svg">
<circle cx="16" cy="16" r="16" fill="white" fill-opacity="0.17"/>
<path d="M13.6289 20.1191C13.6289 19.2578 13.1777 17.8633 12.1113 17.8633C11.0449 17.8633 10.5938 19.2578 10.5938 20.1191C10.5938 20.9805 11.0449 22.375 12.1113 22.375C13.1777 22.375 13.6289 20.9805 13.6289 20.1191ZM25.6875 18.0684C25.6875 16.3457 25.1953 14.7051 24.0879 13.3516C24.293 12.7363 24.375 12.0801 24.375 11.3828C24.375 10.5215 24.1699 10.0703 23.8008 9.25C21.9551 9.25 20.7656 9.61914 19.3711 10.7266C18.3047 10.4395 17.1562 10.3164 16.0488 10.3164C14.8594 10.3164 13.6289 10.4805 12.4395 10.7266C11.0039 9.61914 9.81445 9.25 7.96875 9.25C7.55859 10.0703 7.35352 10.5215 7.35352 11.3828C7.35352 12.0801 7.47656 12.7363 7.68164 13.3926C6.5332 14.7051 6 16.3457 6 18.0684C6 19.3809 6.20508 20.7754 6.82031 21.9648C8.41992 25.123 12.9727 25 16.0488 25C19.125 25 23.3906 25.082 24.9492 21.9648C25.5234 20.7344 25.6875 19.3809 25.6875 18.0684ZM23.0215 20.1191C23.0215 23.7285 19.7402 24.2617 16.8691 24.2617H14.8594C11.9883 24.2617 8.70703 23.7285 8.70703 20.1191C8.70703 18.3145 9.81445 16.7559 11.7422 16.7559C12.5215 16.7559 13.2598 16.8789 14.0391 17.002C14.6543 17.084 15.2285 17.125 15.8848 17.125C16.5 17.125 17.1152 17.084 17.7305 17.002C18.5098 16.8789 19.248 16.7559 20.0273 16.7559C21.9551 16.7559 23.0215 18.3145 23.0215 20.1191ZM19.6582 17.8633C18.5918 17.8633 18.1406 19.2578 18.1406 20.1191C18.1406 20.9805 18.5918 22.375 19.6582 22.375C20.6836 22.375 21.1348 20.9805 21.1348 20.1191C21.1348 19.2578 20.6836 17.8633 19.6582 17.8633Z" fill="white"/>
</svg>
