<svg width="32" height="32" viewBox="0 0 32 32" fill="none" xmlns="http://www.w3.org/2000/svg">
<circle cx="16" cy="16" r="16" fill="white" fill-opacity="0.17"/>
<path d="M26.3535 11.4648C26.4766 10.9727 26.3535 10.5625 25.6152 10.5625H23.1953C22.5801 10.5625 22.293 10.8906 22.1289 11.2598C22.1289 11.2598 20.8984 14.2539 19.1758 16.2227C18.6016 16.7559 18.3555 16.9609 18.0273 16.9609C17.9043 16.9609 17.6582 16.7559 17.6582 16.2637V11.4648C17.6582 10.8496 17.4941 10.5625 16.9609 10.5625H13.1875C12.7773 10.5625 12.5723 10.8496 12.5723 11.1367C12.5723 11.7109 13.4336 11.834 13.5156 13.4746V17.043C13.5156 17.8223 13.3926 17.9863 13.0645 17.9863C12.2441 17.9863 10.2754 14.9512 9.08594 11.5059C8.83984 10.8496 8.59375 10.5625 7.97852 10.5625H5.55859C4.90234 10.5625 4.73828 10.8906 4.73828 11.2598C4.73828 11.916 5.55859 15.0742 8.55273 19.2988C10.5625 22.1699 13.3926 23.6875 15.9355 23.6875C17.4531 23.6875 17.6582 23.3594 17.6582 22.7852C17.6582 20.0371 17.5352 19.75 18.2734 19.75C18.6426 19.75 19.2578 19.9551 20.6934 21.3496C22.334 22.9902 22.6211 23.6875 23.5234 23.6875H25.9434C26.6406 23.6875 26.9688 23.3594 26.7637 22.6621C26.3125 21.2676 23.2363 18.3145 23.0723 18.1094C22.7031 17.6582 22.8262 17.4531 23.0723 17.043C23.0723 17.043 26.0254 12.8594 26.3535 11.4648Z" fill="white"/>
</svg>
